<?xml version="1.0" encoding="UTF-8"?><svg id="Layer_1" xmlns="http://www.w3.org/2000/svg" viewBox="0 0 784.23 369.06"><defs><style>.cls-1{fill:none;}.cls-1,.cls-2{stroke-width:0px;}</style></defs><path class="cls-1" d="M251.77,111.8c9.13-16.77,10.68-37.23,1.11-55.12-14.01-26.68-46.48-32.27-74.06-27.51-47.16,7.44-67.88,56.47-51.83,98.16,6.96,18.86,18.2,35.47,26.29,53.35,7.46,14,10.46,33.54-1.7,45.67-11.1,12.2-32.92,12.28-44.8.95-8.79-7.8-11.52-21.5-8.72-33.37,1.98-10.36,10.11-19.03,8.17-26.85-9.87-13.29-32.72.35-44.92,7.54-9.78,6.06-17.4,14.72-21.5,24.07-14.27,35.16-12.6,82.18,16.23,109.84,36.23,35.47,100.82,33.25,135.87-2.39,24.75-25.08,36.67-66.5,21.17-104.12-8.79-20.71-24.21-37.8-31.45-59.07-4.25-12.84-11.31-29.09-3.84-40.83,4-6.38,10.94-12.07,18.81-11.58,11.08.59,15.08,13.24,15.32,23.19.35,5.51-3.25,11.11-1.89,16.47l.19.57c12.14,17.96,34.87-6.05,41.55-18.98Z"/><ellipse class="cls-1" cx="712.1" cy="72.51" rx="39.57" ry="36.75"/><path class="cls-1" d="M739.94,211.95c-6.12,2.23-10.71,8.86-16.32,12.93-9.72,8.23-26.16,3.48-29.98-8.5-1.91-5.89-.58-12.47.92-18.41,4.28-15.09,9.07-29.39,12.04-44.43,1.58-9.01,3.13-25.03-8.36-27.44-10.27-.57-21.14,5.06-26.44,13.64-9.21,16.53-16.99,33.98-23.85,51.6-4.33,12.67-10.37,26.16-23,32.3-20.43,9.02-54.24,13.03-67.62-8.92-4.74-8.19-.66-16.93,7.49-19.88,10.68-4.52,23.75-2.03,34.61-7.32,30.91-14.06,25.16-67.37-12.52-64.84-17.18.43-31.86,10.41-40.98,24.62-8.33,9.59-22.28,42.14-37.48,36.08-16.84-13.9,36.36-102.64,38.89-127.14,1.28-8.09-2.25-16.63-11.07-17.64-15.09-1.87-27.56,12.08-32.91,25-18.77,44.26-35.95,89.45-54.21,133.99-4.68,10.84-9.85,22.79-20.4,29.06-23.76,12.31-32.68-11.64-26.04-31.26,4.72-15.56,12.8-30.22,18.53-45.53,5.14-10.51,1.76-24.99-11.22-26.9-20.87.28-23.25,21.47-48.87,6.45-26.31-13.68-56.26-6.41-77.6,14.72-35.99,33.79-50.19,81.09-45.77,130.84.58,17.12,9.24,34.54,26.34,40.24,30.59,11.85,54.2-19.34,71.24-40.63,2.44-2.87,8.28-10.84,9.38-2.9,2.03,19.37,3.54,39.91,24.15,43.99,23.36,7.39,40.92-8.58,55.65-26.02,8.11-8.88,8.36-1.65,11.16,7.63,5.73,22.36,38.61,28.3,50.06,7.77,11.04-21.78,2.12-48.45,12.65-70.38,5.18-11.44,12.73-7.51,16.75,3.86,8.12,19.53,7.72,41.62,17.85,60.5,12.07,23.38,39.15,22.98,59.8,9.82,12.28-7.44,21.31-19.06,31.33-29.08,2.03-1.85,3.81-2.72,5.23-2.06l.38.21c3.83,3.45,4.68,14.23,7.3,19.12,9.61,26.45,37.64,24.82,59.73,9.21,26.16-18.14,39.75-47.87,52.34-76.11,4.3-8.28,3.66-22.16-9.14-18.22ZM343.56,222.08c-6.38,15.61-22.26,23.88-35.47,18.48-13.21-5.4-18.75-22.43-12.37-38.03,6.38-15.61,22.26-23.88,35.47-18.48,13.21,5.4,18.75,22.43,12.37,38.03Z"/><path class="cls-2" d="M778.79,200.98c-4.85-9.46-12.93-15.53-22.43-18.52-6.07-2.1-13.77-2.26-16.63-6.1-4.16-6.48-.4-15.03-.18-22.2.59-15.17,12-24.01,22.48-33.17,25.05-25.03,24.14-71.34-2.61-91.67-50.72-35.36-131.17.67-111.49,70.19,2.21,6.53,6.36,23.57-5.53,20.3-2.51-.96-5.08-3.34-7.2-5.38-13.56-13.83-31.15-19.11-51.12-19.69-2.92-.2-6.87-.66-8.42-2.91-1.68-2.11-.96-5.75.46-9.93,1.73-5.17,3.35-10.45,4.4-15.96,10.75-57.87-74.71-83.67-103.57-21.43l-36.99,79.25c-19.39-31.89-56.1-14.68-62.64-10.44-13.31-9.52-24.7-14.56-33.13-15.5-16.56-1.83-25.91.51-41.94,2.89-2.99.51-7.13.92-9.32-.53-1.95-1.18-2.7-3.61-2.75-6.85.75-12.04.56-24.79-3.73-36.29C265.92-5.43,175.28-15.44,128.99,21.39c-31.28,24.25-42.19,60.38-36.71,98.76.86,7.97-3,12.13-10.72,14.05-42.22,9.78-64.93,36.28-75.04,72.72-27.69,88.57,36.25,166.86,127.18,161.93,27.7-2.04,53.52-13.81,77.42-33.93,2.75-2.3,6.18-4.86,9.59-5.13,4.13-.57,8.64,2.54,12.09,5.28,27.02,21.93,56.62,21.61,84.83,6.92,9.5-5.85,19.65-5.35,28.65,1.25,19.83,12.08,40.72,10.18,62.1,3.01,4.44-1.37,9.07-2.67,13.68-2.57,6.72.08,13.26,3.14,19.69,5.07,22.38,7.09,45.89,2.78,61.46-11.55,2.84-2.51,6.23-5.26,10.01-4.54,2.97.39,6.47,2.99,9.18,5.03,24.34,18.53,52.25,17.39,81.25,4.64,8.32-3.8,17.35-6.19,25.69-1.07,37.43,24.87,84.64,2.9,109.9-28.93,17.94-21.12,29.92-46.5,41.07-71.9,5.98-12.44,4.84-27.32-1.52-39.45ZM712.86,39.37c21.85,0,39.57,16.45,39.57,36.75s-17.72,36.75-39.57,36.75-39.57-16.45-39.57-36.75,17.72-36.75,39.57-36.75ZM210.97,134.39l-.19-.57c-1.35-5.36,2.24-10.97,1.89-16.47-.24-9.96-4.23-22.6-15.32-23.19-7.87-.5-14.81,5.19-18.81,11.58-7.47,11.74-.42,27.98,3.84,40.83,7.24,21.27,22.65,38.36,31.45,59.07,15.49,37.62,3.58,79.04-21.17,104.12-35.05,35.64-99.64,37.86-135.87,2.39-28.83-27.66-30.5-74.68-16.23-109.84,4.1-9.35,11.72-18,21.5-24.07,12.2-7.2,35.05-20.83,44.92-7.54,1.94,7.82-6.19,16.48-8.17,26.85-2.79,11.87-.06,25.56,8.72,33.37,11.88,11.33,33.7,11.26,44.8-.95,12.16-12.12,9.16-31.66,1.7-45.67-8.09-17.88-19.33-34.5-26.29-53.35-16.05-41.69,4.67-90.72,51.83-98.16,27.58-4.75,60.06.83,74.06,27.51,9.56,17.89,8.02,38.35-1.11,55.12-6.68,12.93-29.41,36.94-41.55,18.98ZM749.84,233.77c-12.59,28.24-26.18,57.97-52.34,76.11-22.09,15.6-50.12,17.24-59.73-9.21-2.61-4.9-3.47-15.68-7.3-19.12l-.38-.21c-1.42-.67-3.2.21-5.23,2.06-10.02,10.02-19.05,21.64-31.33,29.08-20.65,13.17-47.73,13.56-59.8-9.82-10.13-18.88-9.74-40.97-17.85-60.5-4.01-11.37-11.57-15.3-16.75-3.86-10.53,21.93-1.61,48.6-12.65,70.38-11.45,20.54-44.33,14.59-50.06-7.77-2.8-9.27-3.05-16.51-11.16-7.63-14.72,17.44-32.29,33.42-55.65,26.02-20.61-4.08-22.12-24.61-24.15-43.99-1.1-7.94-6.94.03-9.38,2.9-17.04,21.28-40.64,52.48-71.24,40.63-17.1-5.71-25.76-23.12-26.34-40.24-4.43-49.75,9.78-97.05,45.77-130.84,21.35-21.13,51.29-28.4,77.6-14.72,4.45,2.61,9.99,5.22,12.96,6.77,6.83,3.57,5.28,3.94,13.71-4.5,5.34-4.72,12.01-8.58,22.2-8.72,12.98,1.91,16.36,16.39,11.22,26.9-5.73,15.31-13.81,29.97-18.53,45.53-6.63,19.62,2.28,43.57,26.04,31.26,10.55-6.28,15.72-18.22,20.4-29.06,18.26-44.54,35.44-89.74,54.21-133.99,5.35-12.92,17.82-26.87,32.91-25,8.83,1,12.35,9.55,11.07,17.64-2.52,24.5-55.72,113.25-38.89,127.14,15.19,6.06,29.15-26.49,37.48-36.08,9.11-14.21,23.8-24.19,40.98-24.62,37.69-2.53,43.44,50.78,12.52,64.84-10.85,5.28-23.93,2.8-34.61,7.32-8.14,2.95-12.23,11.69-7.49,19.88,13.38,21.95,47.19,17.94,67.62,8.92,12.63-6.14,18.67-19.63,23-32.3,6.87-17.62,14.64-35.07,23.85-51.6,5.3-8.58,16.17-14.22,26.44-13.64,11.5,2.41,9.94,18.43,8.36,27.44-2.96,15.04-7.75,29.35-12.04,44.43-1.5,5.94-2.83,12.52-.92,18.41,3.83,11.98,20.27,16.72,29.98,8.5,5.61-4.07,10.2-10.7,16.32-12.93,12.8-3.94,13.44,9.94,9.14,18.22Z"/><path class="cls-2" d="M331.19,179.84c-13.21-5.4-29.09,2.87-35.47,18.48-6.38,15.61-.84,32.63,12.37,38.03,13.21,5.4,29.09-2.87,35.47-18.48,6.38-15.61.84-32.63-12.37-38.03Z"/></svg>